<?xml version="1.0" standalone="no"?>
<!DOCTYPE svg PUBLIC "-//W3C//DTD SVG 20010904//EN"
 "http://www.w3.org/TR/2001/REC-SVG-20010904/DTD/svg10.dtd">
<svg version="1.0" xmlns="http://www.w3.org/2000/svg"
 width="56.000000pt" height="50.000000pt" viewBox="0 0 56.000000 50.000000"
 preserveAspectRatio="xMidYMid meet">
<metadata>
Created by potrace 1.10, written by Peter Selinger 2001-2011
</metadata>
<g transform="translate(0.000000,50.000000) scale(0.100000,-0.100000)"
fill="#FFFFFF" stroke="none">
<path d="M472 476 c-6 -14 -33 -41 -59 -60 -44 -32 -49 -33 -75 -20 -36 19
-112 18 -151 -2 -59 -30 -86 -64 -101 -129 l-8 -30 24 21 c13 12 68 38 123 59
130 49 210 91 241 127 l24 30 0 -30 c0 -35 -35 -89 -76 -117 -16 -11 -82 -35
-146 -53 -118 -34 -189 -75 -174 -100 5 -8 13 -9 24 -3 21 11 272 19 272 9 0
-4 -10 -18 -22 -32 -29 -32 -87 -56 -112 -46 -16 5 -11 9 25 18 49 12 88 36
77 48 -4 4 -13 2 -20 -4 -23 -18 -83 -24 -141 -13 -57 10 -91 6 -82 -9 3 -5
30 -12 61 -16 56 -7 58 -23 4 -25 -25 -1 -24 -1 5 -14 46 -22 114 -18 160 8
42 24 85 86 85 124 0 12 8 27 18 32 9 5 26 24 36 42 l19 32 -24 -16 c-50 -35
-81 -12 -34 25 34 26 55 69 55 110 0 48 -14 65 -28 34z m-194 -95 c13 -8 -41
-36 -105 -56 -28 -8 -30 6 -4 29 30 28 87 42 109 27z m165 -121 c-39 -35 -79
-46 -197 -55 -49 -3 -103 -13 -120 -22 l-31 -16 20 22 c29 34 73 48 192 65 60
8 119 19 133 25 38 15 38 13 3 -19z"/>
</g>
</svg>
