<svg version="1.1" id="Layer_1" xmlns="http://www.w3.org/2000/svg" xmlns:xlink="http://www.w3.org/1999/xlink" x="0px" y="0px"
	 width="100%" viewBox="0 0 1080 1080" enable-background="new 0 0 1080 1080" xml:space="preserve">
<path fill="#3B4D5E" opacity="000000" stroke="none" 
	d="
M713.000000,1081.000000 
	C475.360687,1081.000000 238.221405,1081.000000 1.041052,1081.000000 
	C1.041052,721.068909 1.041052,361.137817 1.041052,1.103365 
	C360.889526,1.103365 720.779114,1.103365 1080.834351,1.103365 
	C1080.834351,360.999939 1080.834351,720.999939 1080.834351,1081.000000 
	C958.470703,1081.000000 835.985352,1081.000000 713.000000,1081.000000 
M466.006866,555.039429 
	C466.006866,555.039429 465.986420,554.984924 466.014282,555.680420 
	C472.416595,559.843201 478.495056,564.647827 485.272522,568.067017 
	C538.917603,595.131165 591.366516,592.580811 640.727295,558.368896 
	C679.808228,531.281860 699.668884,492.409180 702.875488,444.988983 
	C703.014160,442.938690 703.807739,440.055481 705.288269,439.104309 
	C728.475952,424.206940 741.228882,401.168457 753.602966,377.809753 
	C753.750061,377.532104 753.467590,377.026917 753.342896,376.419952 
	C735.481812,386.291351 718.877991,398.150574 699.337708,403.907532 
	C695.891296,394.052887 692.619751,384.698059 689.298035,375.199951 
	C690.871155,374.223450 692.410156,373.252991 693.963562,372.306152 
	C718.908264,357.101440 738.713989,337.278198 750.360046,310.002808 
	C762.733887,281.023071 761.308594,252.747238 746.326904,225.145172 
	C746.187256,225.312210 745.908569,225.532578 745.778320,225.820190 
	C745.023682,227.486267 744.194763,229.129715 743.589172,230.850555 
	C736.607788,250.692062 724.954041,267.118896 708.415527,280.221039 
	C689.099121,295.523926 667.513977,307.071014 645.885376,318.546051 
	C644.451843,319.306580 641.495300,318.453369 639.862244,317.398499 
	C588.137634,283.987610 534.464844,280.565125 481.226410,311.407867 
	C431.724884,340.085663 407.723389,385.035431 408.028229,443.408142 
	C408.035889,457.373077 410.517822,470.906799 415.141815,484.814087 
	C416.465149,488.105652 417.788452,491.397217 419.125671,495.135925 
	C419.365204,495.666748 419.604736,496.197571 420.027161,497.467987 
	C421.590240,500.608704 423.153351,503.749390 424.925323,507.462646 
	C426.185547,509.627502 427.445770,511.792358 428.968628,514.625977 
	C432.366943,519.543274 435.765259,524.460510 439.536896,529.865845 
	C447.629761,537.894531 455.722656,545.923218 464.212067,554.515564 
	C464.827179,554.680298 465.442291,554.845032 466.006866,555.039429 
M877.007751,677.500000 
	C877.007751,666.744324 877.007751,655.988647 877.007751,645.174988 
	C869.249756,645.174988 862.135559,645.174988 854.200684,645.174988 
	C854.200684,665.756165 854.200684,686.168701 854.200684,707.871582 
	C838.491028,687.144104 823.736938,667.634705 808.896179,648.191406 
	C807.889282,646.872253 806.273804,645.216309 804.866272,645.142090 
	C798.588745,644.811157 792.283936,644.998413 785.742798,644.998413 
	C785.742798,679.474487 785.742798,713.543274 785.742798,747.716797 
	C793.238464,747.716797 800.468384,747.716797 808.122437,747.716797 
	C808.122437,726.391907 808.122437,705.353760 808.122437,683.194153 
	C809.932251,685.421631 811.073120,686.748047 812.129944,688.138367 
	C826.534546,707.088379 840.911560,726.059448 855.360718,744.975464 
	C856.288086,746.189575 857.710205,747.789124 858.972107,747.854187 
	C864.885193,748.159302 870.822754,747.989807 877.007751,747.989807 
	C877.007751,724.422852 877.007751,701.461426 877.007751,677.500000 
M592.634399,705.899353 
	C602.501831,718.899658 612.337830,731.924194 622.284729,744.863403 
	C623.291443,746.172974 624.919006,747.776550 626.340454,747.860779 
	C632.097351,748.201965 637.886414,748.002502 643.712341,748.002502 
	C643.712341,713.412048 643.712341,679.354126 643.712341,645.148071 
	C636.296204,645.148071 629.175537,645.148071 621.232056,645.148071 
	C621.232056,665.716980 621.232056,686.145081 621.232056,707.911621 
	C605.495728,687.149475 590.737976,667.635315 575.893005,648.187561 
	C574.886047,646.868469 573.267639,645.215881 571.858582,645.141663 
	C565.580627,644.810913 559.275330,644.998108 552.760132,644.998108 
	C552.760132,679.503845 552.760132,713.587402 552.760132,747.688721 
	C560.282104,747.688721 567.519653,747.688721 575.199707,747.688721 
	C575.199707,726.336487 575.199707,705.299683 575.199707,682.971313 
	C581.384094,691.121277 586.781677,698.234436 592.634399,705.899353 
M518.992859,732.486938 
	C533.052490,715.943542 536.688232,697.236206 529.131287,677.004333 
	C521.612427,656.874268 506.056183,646.327332 485.122192,643.333557 
	C463.446991,640.233765 441.382538,650.663269 430.435303,669.052673 
	C419.540222,687.354492 420.650269,711.489685 433.166504,728.435608 
	C452.996033,755.283142 493.972321,757.474060 518.992859,732.486938 
M392.394043,722.048035 
	C390.008392,718.527771 387.622742,715.007507 385.218292,711.459534 
	C385.971710,710.978210 386.370636,710.669067 386.813538,710.448181 
	C402.383118,702.680664 409.269012,689.872192 406.691681,673.454834 
	C404.219543,657.707520 394.328247,647.336609 377.064545,646.003784 
	C358.523834,644.572327 339.813324,645.339172 321.176636,645.174866 
	C320.925537,645.172668 320.671173,645.539673 320.395203,645.752197 
	C320.395203,679.659912 320.395203,713.576782 320.395203,747.687073 
	C328.006989,747.687073 335.378235,747.687073 343.225098,747.687073 
	C343.225098,736.643799 343.225098,725.911560 343.225098,715.005066 
	C348.188324,715.005066 352.681335,715.163147 357.156311,714.947388 
	C359.961884,714.812195 361.663879,715.712280 363.242218,718.117310 
	C369.176239,727.159546 375.330414,736.058838 381.509552,744.936951 
	C382.367401,746.169495 383.799835,747.817322 385.011963,747.856323 
	C393.082367,748.116455 401.165161,747.991211 410.094971,747.991211 
	C404.003571,739.036865 398.418915,730.827454 392.394043,722.048035 
M269.787079,743.302551 
	C290.537964,734.171692 302.610260,714.434082 300.730530,692.711487 
	C298.723450,669.517273 284.211151,651.071167 261.233124,647.286377 
	C243.038162,644.289490 224.225189,645.044678 205.466217,644.122925 
	C205.466217,679.554810 205.466217,713.605957 205.466217,748.006042 
	C218.579346,748.006042 231.413773,748.528259 244.180008,747.820618 
	C252.541672,747.357117 260.804688,745.113770 269.787079,743.302551 
M752.192078,706.206116 
	C745.498413,690.460938 738.817261,674.710388 732.103638,658.973816 
	C730.019165,654.087952 729.094727,647.281067 725.373230,644.909729 
	C721.432495,642.398621 714.776367,644.340515 709.338684,643.919067 
	C705.734619,643.639709 704.199097,645.037659 702.832703,648.285522 
	C689.498901,679.978516 675.970398,711.589600 662.503662,743.226746 
	C661.896729,744.652649 661.351868,746.105042 660.595459,748.003662 
	C667.733643,748.003662 674.056885,747.876343 680.370728,748.065308 
	C682.947266,748.142334 684.160828,747.275696 685.077087,744.877686 
	C687.617981,738.227783 690.451721,731.689697 693.212219,725.004578 
	C706.925598,725.004578 720.406555,724.912170 733.881958,725.142700 
	C735.280884,725.166626 737.282166,726.817383 737.919922,728.209839 
	C740.884888,734.683655 743.468079,741.332275 746.174561,747.885864 
	C754.103333,747.885864 761.747925,747.885864 769.956909,747.885864 
	C764.068115,734.018860 758.306458,720.451233 752.192078,706.206116 
M413.995056,820.428650 
	C412.246246,822.951050 410.497437,825.473450 408.420929,828.468506 
	C402.949005,820.412415 397.967926,812.959534 392.827179,805.618469 
	C391.881348,804.267822 390.288330,803.370300 388.994080,802.263672 
	C388.553894,802.555176 388.113739,802.846680 387.673553,803.138184 
	C387.673553,804.757935 387.673584,806.377686 387.673584,807.997437 
	C387.673553,818.979614 387.595581,829.962952 387.749390,840.942993 
	C387.775330,842.793762 388.801453,844.630554 389.365448,846.473816 
	C389.897125,844.611877 390.860168,842.756470 390.888519,840.886902 
	C391.040802,830.847290 390.960480,820.804077 390.960480,810.762146 
	C391.316467,810.671265 391.672455,810.580383 392.028442,810.489502 
	C397.387756,818.192139 402.747101,825.894775 408.423523,834.053162 
	C414.111633,825.845947 419.488129,818.088318 424.864655,810.330688 
	C425.946564,821.667847 425.906555,832.451477 426.007660,843.233765 
	C426.017944,844.329346 426.877472,845.416931 427.342896,846.508240 
	C427.976685,845.399719 429.146210,844.298340 429.161041,843.181641 
	C429.302460,832.534058 429.248352,821.883911 429.250153,811.234497 
	C429.250610,808.482483 429.250214,805.730408 429.250214,802.978394 
	C428.525879,802.596619 427.801544,802.214844 427.077209,801.833069 
	C422.341156,807.406555 418.669373,813.870911 413.995056,820.428650 
M476.750580,805.892883 
	C484.250244,805.881409 491.750732,805.920471 499.248383,805.791260 
	C500.132050,805.776001 500.999786,804.837524 501.874908,804.326965 
	C501.211121,803.789673 500.552216,802.791504 499.882843,802.784485 
	C490.276215,802.683044 480.668182,802.715088 470.923279,802.715088 
	C470.923279,817.612549 470.923279,831.857727 470.923279,846.035461 
	C480.848907,847.951111 500.416656,846.949036 502.312897,844.007935 
	C500.447052,843.883606 498.870972,843.696838 497.293915,843.687805 
	C490.794373,843.650696 484.288544,843.811340 477.799774,843.542786 
	C476.509949,843.489380 474.280365,841.948486 474.200989,840.956177 
	C473.820557,836.200684 474.030151,831.397949 474.030151,825.777588 
	C482.673767,825.777588 490.809174,825.777588 498.944580,825.777588 
	C499.006378,824.995728 499.068176,824.213867 499.129974,823.432007 
	C495.301025,822.538391 491.218994,823.081238 487.268433,822.995911 
	C482.993774,822.903564 478.715576,822.974976 474.043854,822.974976 
	C474.043854,817.531494 473.974762,812.731750 474.122070,807.938599 
	C474.142944,807.259094 475.216553,806.611877 476.750580,805.892883 
M541.004517,841.275940 
	C541.100403,842.865417 541.196350,844.454834 541.307434,846.296204 
	C547.539124,846.296204 553.351807,846.593506 559.123230,846.231689 
	C569.724121,845.567139 577.861633,837.849182 578.992737,827.873047 
	C580.287781,816.451111 574.706604,806.670166 563.883606,804.095581 
	C556.652039,802.375305 548.910950,802.796814 541.004333,802.231750 
	C541.004333,815.740051 541.004333,828.034302 541.004517,841.275940 
M696.124390,828.255615 
	C692.564453,820.569153 689.060425,812.855713 685.385925,805.224426 
	C684.817688,804.044312 683.477722,802.490845 682.476196,802.477295 
	C681.509583,802.464233 680.154785,804.046265 679.595825,805.224243 
	C674.397644,816.177917 669.327271,827.192444 664.237915,838.197571 
	C663.084106,840.692566 662.000427,843.219971 660.884521,845.732422 
	C661.251587,846.041992 661.618652,846.351562 661.985718,846.661072 
	C663.030029,845.787720 664.797791,845.058838 665.005737,844.018311 
	C666.898438,834.546814 673.462036,833.467957 681.368347,834.488281 
	C682.513123,834.635986 683.718201,834.664368 684.853210,834.483521 
	C692.349670,833.289124 697.703247,835.316650 699.567322,843.496887 
	C699.855530,844.761597 701.708679,845.669617 702.838074,846.742615 
	C703.258362,846.358276 703.678711,845.973938 704.098999,845.589661 
	C701.544067,840.041504 698.989197,834.493408 696.124390,828.255615 
M622.283936,839.403564 
	C622.283386,828.759521 622.351074,818.114502 622.204224,807.472473 
	C622.183594,805.975708 621.112854,804.493408 620.528198,803.004456 
	C620.028992,804.395447 619.110413,805.782166 619.096497,807.178040 
	C618.980286,818.818848 619.013123,830.461304 619.054993,842.103149 
	C619.059814,843.438049 619.395874,844.771729 619.578369,846.106018 
	C620.234131,846.150391 620.889954,846.194702 621.545715,846.239075 
	C621.791870,844.283875 622.037964,842.328735 622.283936,839.403564 
M328.623993,826.077698 
	C325.946533,826.336487 323.269043,826.595276 320.591553,826.854065 
	C320.692474,827.377808 320.793396,827.901611 320.894318,828.425354 
	C333.874725,828.425354 346.855164,828.425354 360.225739,828.425354 
	C359.729706,827.362305 359.543823,826.588562 359.341614,826.584290 
	C349.425476,826.373779 339.507935,826.229431 328.623993,826.077698 
M766.123291,829.023438 
	C767.375610,828.809143 768.627930,828.594849 770.870789,828.210999 
	C765.446289,824.932007 732.418945,825.515442 729.972900,829.024719 
	C742.084229,829.024719 753.642029,829.024719 766.123291,829.023438 
z"/>
<path fill="#A0A0A0" opacity="1.000000" stroke="none" 
	d="
M424.716461,506.890106 
	C423.153351,503.749390 421.590240,500.608704 420.258026,496.989899 
	C443.308899,480.401917 469.013580,471.243500 496.422943,468.275696 
	C523.855408,465.305389 551.526489,464.390839 579.116516,463.064453 
	C608.109192,461.670685 636.973389,459.769318 664.649170,449.995605 
	C692.500610,440.159821 716.570374,425.241028 732.288574,399.017578 
	C732.215881,398.787415 732.110596,398.731079 732.005310,398.674713 
	C732.128540,398.868744 732.251709,399.062805 732.033936,399.045624 
	C724.298401,402.216278 717.028259,405.908722 709.487976,408.926300 
	C676.300415,422.207855 641.200684,425.650848 606.044617,429.114990 
	C577.583984,431.919373 549.006226,434.451141 520.859070,439.301056 
	C480.993073,446.170197 445.801422,462.961365 419.111755,494.688782 
	C417.788452,491.397217 416.465149,488.105652 415.419861,484.278809 
	C426.912933,467.079742 441.717834,454.467133 459.271423,444.886139 
	C481.366669,432.826324 505.295074,425.768494 529.342102,419.041290 
	C565.376953,408.960449 601.637756,399.629456 637.423706,388.735352 
	C665.118835,380.304352 691.161133,367.910004 712.986877,348.214172 
	C734.588196,328.720795 748.017212,304.860962 750.510559,275.484467 
	C751.339661,265.715393 750.067383,256.178192 746.166687,245.941940 
	C731.313049,277.328156 704.857849,294.925140 676.994751,310.686737 
	C657.453613,321.740814 637.492859,332.103271 617.369019,342.066589 
	C575.373657,362.858551 531.258972,378.299164 486.864960,393.048004 
	C456.659607,403.083008 428.520935,416.752258 408.135925,442.566498 
	C407.723389,385.035431 431.724884,340.085663 481.226410,311.407867 
	C534.464844,280.565125 588.137634,283.987610 639.862244,317.398499 
	C641.495300,318.453369 644.451843,319.306580 645.885376,318.546051 
	C667.513977,307.071014 689.099121,295.523926 708.415527,280.221039 
	C724.954041,267.118896 736.607788,250.692062 743.589172,230.850555 
	C744.194763,229.129715 745.023682,227.486267 745.778320,225.820190 
	C745.908569,225.532578 746.187256,225.312210 746.326904,225.145172 
	C761.308594,252.747238 762.733887,281.023071 750.360046,310.002808 
	C738.713989,337.278198 718.908264,357.101440 693.963562,372.306152 
	C692.410156,373.252991 690.871155,374.223450 689.298035,375.199951 
	C692.619751,384.698059 695.891296,394.052887 699.337708,403.907532 
	C718.877991,398.150574 735.481812,386.291351 753.342896,376.419952 
	C753.467590,377.026917 753.750061,377.532104 753.602966,377.809753 
	C741.228882,401.168457 728.475952,424.206940 705.288269,439.104309 
	C703.807739,440.055481 703.014160,442.938690 702.875488,444.988983 
	C699.668884,492.409180 679.808228,531.281860 640.727295,558.368896 
	C591.366516,592.580811 538.917603,595.131165 485.272522,568.067017 
	C478.495056,564.647827 472.416595,559.843201 466.404968,555.219482 
	C485.366241,559.127380 503.185699,558.079590 519.809509,547.219604 
	C508.905670,550.098816 500.153839,544.172485 490.837463,540.661926 
	C488.040619,539.608032 485.283569,538.442993 482.463623,537.456543 
	C468.445831,532.553040 454.260040,528.514282 439.163544,529.377808 
	C435.765259,524.460510 432.366943,519.543274 429.180481,514.110413 
	C441.933441,509.100128 454.923279,506.633179 468.141479,508.073486 
	C481.498962,509.528992 494.877808,511.606781 507.954163,514.665283 
	C542.671265,522.785583 576.655823,521.965027 609.773682,507.955933 
	C617.747437,504.583008 625.308594,500.234467 633.059448,496.334564 
	C632.858093,495.860626 632.656677,495.386719 632.455322,494.912781 
	C630.861877,495.075836 629.266785,495.224030 627.675598,495.406097 
	C626.023621,495.595093 624.377930,495.839813 622.725220,496.020935 
	C597.274231,498.809967 572.225403,494.830597 547.143799,491.487213 
	C523.359497,488.316803 499.576111,485.103333 475.507660,488.006470 
	C457.078461,490.229401 439.754547,495.506561 424.716461,506.890106 
M634.465820,494.437592 
	C634.465820,494.437592 634.386230,494.466461 634.465820,494.437592 
z"/>
<path fill="#FFFEFE" opacity="1.000000" stroke="none" 
	d="
M408.082092,442.987305 
	C428.520935,416.752258 456.659607,403.083008 486.864960,393.048004 
	C531.258972,378.299164 575.373657,362.858551 617.369019,342.066589 
	C637.492859,332.103271 657.453613,321.740814 676.994751,310.686737 
	C704.857849,294.925140 731.313049,277.328156 746.166687,245.941940 
	C750.067383,256.178192 751.339661,265.715393 750.510559,275.484467 
	C748.017212,304.860962 734.588196,328.720795 712.986877,348.214172 
	C691.161133,367.910004 665.118835,380.304352 637.423706,388.735352 
	C601.637756,399.629456 565.376953,408.960449 529.342102,419.041290 
	C505.295074,425.768494 481.366669,432.826324 459.271423,444.886139 
	C441.717834,454.467133 426.912933,467.079742 415.406372,483.907715 
	C410.517822,470.906799 408.035889,457.373077 408.082092,442.987305 
z"/>
<path fill="#FFFEFD" opacity="1.000000" stroke="none" 
	d="
M419.118713,494.912354 
	C445.801422,462.961365 480.993073,446.170197 520.859070,439.301056 
	C549.006226,434.451141 577.583984,431.919373 606.044617,429.114990 
	C641.200684,425.650848 676.300415,422.207855 709.487976,408.926300 
	C717.028259,405.908722 724.298401,402.216278 732.003784,399.029968 
	C732.314758,399.225494 732.256042,399.191376 732.256042,399.191376 
	C716.570374,425.241028 692.500610,440.159821 664.649170,449.995605 
	C636.973389,459.769318 608.109192,461.670685 579.116516,463.064453 
	C551.526489,464.390839 523.855408,465.305389 496.422943,468.275696 
	C469.013580,471.243500 443.308899,480.401917 420.166565,496.620117 
	C419.604736,496.197571 419.365204,495.666748 419.118713,494.912354 
z"/>
<path fill="#A0A0A0" opacity="1.000000" stroke="none" 
	d="
M877.007751,678.000000 
	C877.007751,701.461426 877.007751,724.422852 877.007751,747.989807 
	C870.822754,747.989807 864.885193,748.159302 858.972107,747.854187 
	C857.710205,747.789124 856.288086,746.189575 855.360718,744.975464 
	C840.911560,726.059448 826.534546,707.088379 812.129944,688.138367 
	C811.073120,686.748047 809.932251,685.421631 808.122437,683.194153 
	C808.122437,705.353760 808.122437,726.391907 808.122437,747.716797 
	C800.468384,747.716797 793.238464,747.716797 785.742798,747.716797 
	C785.742798,713.543274 785.742798,679.474487 785.742798,644.998413 
	C792.283936,644.998413 798.588745,644.811157 804.866272,645.142090 
	C806.273804,645.216309 807.889282,646.872253 808.896179,648.191406 
	C823.736938,667.634705 838.491028,687.144104 854.200684,707.871582 
	C854.200684,686.168701 854.200684,665.756165 854.200684,645.174988 
	C862.135559,645.174988 869.249756,645.174988 877.007751,645.174988 
	C877.007751,655.988647 877.007751,666.744324 877.007751,678.000000 
z"/>
<path fill="#A0A0A0" opacity="1.000000" stroke="none" 
	d="
M592.406860,705.623535 
	C586.781677,698.234436 581.384094,691.121277 575.199707,682.971313 
	C575.199707,705.299683 575.199707,726.336487 575.199707,747.688721 
	C567.519653,747.688721 560.282104,747.688721 552.760132,747.688721 
	C552.760132,713.587402 552.760132,679.503845 552.760132,644.998108 
	C559.275330,644.998108 565.580627,644.810913 571.858582,645.141663 
	C573.267639,645.215881 574.886047,646.868469 575.893005,648.187561 
	C590.737976,667.635315 605.495728,687.149475 621.232056,707.911621 
	C621.232056,686.145081 621.232056,665.716980 621.232056,645.148071 
	C629.175537,645.148071 636.296204,645.148071 643.712341,645.148071 
	C643.712341,679.354126 643.712341,713.412048 643.712341,748.002502 
	C637.886414,748.002502 632.097351,748.201965 626.340454,747.860779 
	C624.919006,747.776550 623.291443,746.172974 622.284729,744.863403 
	C612.337830,731.924194 602.501831,718.899658 592.406860,705.623535 
z"/>
<path fill="#A0A0A0" opacity="1.000000" stroke="none" 
	d="
M518.749756,732.742798 
	C493.972321,757.474060 452.996033,755.283142 433.166504,728.435608 
	C420.650269,711.489685 419.540222,687.354492 430.435303,669.052673 
	C441.382538,650.663269 463.446991,640.233765 485.122192,643.333557 
	C506.056183,646.327332 521.612427,656.874268 529.131287,677.004333 
	C536.688232,697.236206 533.052490,715.943542 518.749756,732.742798 
M447.710236,688.474609 
	C444.755219,702.636230 449.818237,716.447021 460.637146,723.736389 
	C471.660156,731.163269 486.768921,730.688477 497.029724,722.592651 
	C507.788208,714.104187 511.865967,698.370239 506.883362,684.573120 
	C502.197571,671.597900 490.353333,663.612915 476.410431,664.029236 
	C462.620453,664.440979 452.027191,673.216492 447.710236,688.474609 
z"/>
<path fill="#A0A0A0" opacity="1.000000" stroke="none" 
	d="
M392.614166,722.333008 
	C398.418915,730.827454 404.003571,739.036865 410.094971,747.991211 
	C401.165161,747.991211 393.082367,748.116455 385.011963,747.856323 
	C383.799835,747.817322 382.367401,746.169495 381.509552,744.936951 
	C375.330414,736.058838 369.176239,727.159546 363.242218,718.117310 
	C361.663879,715.712280 359.961884,714.812195 357.156311,714.947388 
	C352.681335,715.163147 348.188324,715.005066 343.225098,715.005066 
	C343.225098,725.911560 343.225098,736.643799 343.225098,747.687073 
	C335.378235,747.687073 328.006989,747.687073 320.395203,747.687073 
	C320.395203,713.576782 320.395203,679.659912 320.395203,645.752197 
	C320.671173,645.539673 320.925537,645.172668 321.176636,645.174866 
	C339.813324,645.339172 358.523834,644.572327 377.064545,646.003784 
	C394.328247,647.336609 404.219543,657.707520 406.691681,673.454834 
	C409.269012,689.872192 402.383118,702.680664 386.813538,710.448181 
	C386.370636,710.669067 385.971710,710.978210 385.218292,711.459534 
	C387.622742,715.007507 390.008392,718.527771 392.614166,722.333008 
M373.473816,666.489014 
	C363.453003,666.028870 353.432190,665.568726 343.306885,665.103821 
	C343.306885,675.654846 343.306885,685.186523 343.306885,694.239380 
	C353.195770,694.239380 362.835571,694.904358 372.331451,694.021484 
	C379.478210,693.357178 383.398987,688.143616 383.943237,681.700928 
	C384.554138,674.468628 381.473755,669.732727 373.473816,666.489014 
z"/>
<path fill="#A0A0A0" opacity="1.000000" stroke="none" 
	d="
M269.449463,743.485107 
	C260.804688,745.113770 252.541672,747.357117 244.180008,747.820618 
	C231.413773,748.528259 218.579346,748.006042 205.466217,748.006042 
	C205.466217,713.605957 205.466217,679.554810 205.466217,644.122925 
	C224.225189,645.044678 243.038162,644.289490 261.233124,647.286377 
	C284.211151,651.071167 298.723450,669.517273 300.730530,692.711487 
	C302.610260,714.434082 290.537964,734.171692 269.449463,743.485107 
M270.770996,716.189209 
	C284.083160,696.493042 275.595917,671.061096 253.684738,666.587036 
	C245.529266,664.921814 236.898590,665.583862 228.289505,665.175415 
	C228.289505,686.397095 228.289505,706.789307 228.289505,727.182190 
	C235.549088,727.182190 242.535614,727.457275 249.491257,727.111267 
	C257.830078,726.696472 264.862885,723.200195 270.770996,716.189209 
z"/>
<path fill="#A0A0A0" opacity="1.000000" stroke="none" 
	d="
M752.368408,706.544861 
	C758.306458,720.451233 764.068115,734.018860 769.956909,747.885864 
	C761.747925,747.885864 754.103333,747.885864 746.174561,747.885864 
	C743.468079,741.332275 740.884888,734.683655 737.919922,728.209839 
	C737.282166,726.817383 735.280884,725.166626 733.881958,725.142700 
	C720.406555,724.912170 706.925598,725.004578 693.212219,725.004578 
	C690.451721,731.689697 687.617981,738.227783 685.077087,744.877686 
	C684.160828,747.275696 682.947266,748.142334 680.370728,748.065308 
	C674.056885,747.876343 667.733643,748.003662 660.595459,748.003662 
	C661.351868,746.105042 661.896729,744.652649 662.503662,743.226746 
	C675.970398,711.589600 689.498901,679.978516 702.832703,648.285522 
	C704.199097,645.037659 705.734619,643.639709 709.338684,643.919067 
	C714.776367,644.340515 721.432495,642.398621 725.373230,644.909729 
	C729.094727,647.281067 730.019165,654.087952 732.103638,658.973816 
	C738.817261,674.710388 745.498413,690.460938 752.368408,706.544861 
M720.405029,704.999512 
	C722.868530,704.999512 725.332092,704.999512 728.592285,704.999512 
	C724.043335,693.864624 719.725830,683.296326 714.937622,671.575928 
	C710.127747,683.390198 705.854126,693.887329 701.330017,704.999512 
	C707.890747,704.999512 713.661865,704.999512 720.405029,704.999512 
z"/>
<path fill="#FFFDFC" opacity="1.000000" stroke="none" 
	d="
M424.820892,507.176392 
	C439.754547,495.506561 457.078461,490.229401 475.507660,488.006470 
	C499.576111,485.103333 523.359497,488.316803 547.143799,491.487213 
	C572.225403,494.830597 597.274231,498.809967 622.725220,496.020935 
	C624.377930,495.839813 626.023621,495.595093 627.675598,495.406097 
	C629.266785,495.224030 630.861877,495.075836 632.455322,494.912781 
	C632.656677,495.386719 632.858093,495.860626 633.059448,496.334564 
	C625.308594,500.234467 617.747437,504.583008 609.773682,507.955933 
	C576.655823,521.965027 542.671265,522.785583 507.954163,514.665283 
	C494.877808,511.606781 481.498962,509.528992 468.141479,508.073486 
	C454.923279,506.633179 441.933441,509.100128 429.049164,513.776001 
	C427.445770,511.792358 426.185547,509.627502 424.820892,507.176392 
z"/>
<path fill="#FFFFFF" opacity="1.000000" stroke="none" 
	d="
M439.350220,529.621826 
	C454.260040,528.514282 468.445831,532.553040 482.463623,537.456543 
	C485.283569,538.442993 488.040619,539.608032 490.837463,540.661926 
	C500.153839,544.172485 508.905670,550.098816 519.809509,547.219604 
	C503.185699,558.079590 485.366241,559.127380 466.391022,554.871765 
	C465.986420,554.984924 466.006866,555.039429 465.911987,554.702881 
	C465.149933,554.228210 464.482727,554.090088 463.815521,553.951904 
	C455.722656,545.923218 447.629761,537.894531 439.350220,529.621826 
z"/>
<path fill="#A0A0A0" opacity="1.000000" stroke="none" 
	d="
M414.197998,820.132202 
	C418.669373,813.870911 422.341156,807.406555 427.077209,801.833069 
	C427.801544,802.214844 428.525879,802.596619 429.250214,802.978394 
	C429.250214,805.730408 429.250610,808.482483 429.250153,811.234497 
	C429.248352,821.883911 429.302460,832.534058 429.161041,843.181641 
	C429.146210,844.298340 427.976685,845.399719 427.342896,846.508240 
	C426.877472,845.416931 426.017944,844.329346 426.007660,843.233765 
	C425.906555,832.451477 425.946564,821.667847 424.864655,810.330688 
	C419.488129,818.088318 414.111633,825.845947 408.423523,834.053162 
	C402.747101,825.894775 397.387756,818.192139 392.028442,810.489502 
	C391.672455,810.580383 391.316467,810.671265 390.960480,810.762146 
	C390.960480,820.804077 391.040802,830.847290 390.888519,840.886902 
	C390.860168,842.756470 389.897125,844.611877 389.365479,846.473816 
	C388.801453,844.630554 387.775330,842.793762 387.749390,840.942993 
	C387.595581,829.962952 387.673553,818.979614 387.673584,807.997437 
	C387.673584,806.377686 387.673553,804.757935 387.673553,803.138184 
	C388.113739,802.846680 388.553894,802.555176 388.994080,802.263672 
	C390.288330,803.370300 391.881348,804.267822 392.827179,805.618469 
	C397.967926,812.959534 402.949005,820.412415 408.420929,828.468506 
	C410.497437,825.473450 412.246246,822.951050 414.197998,820.132202 
z"/>
<path fill="#A0A0A0" opacity="1.000000" stroke="none" 
	d="
M476.276733,805.921265 
	C475.216553,806.611877 474.142944,807.259094 474.122070,807.938599 
	C473.974762,812.731750 474.043854,817.531494 474.043854,822.974976 
	C478.715576,822.974976 482.993774,822.903564 487.268433,822.995911 
	C491.218994,823.081238 495.301025,822.538391 499.129974,823.432007 
	C499.068176,824.213867 499.006378,824.995728 498.944580,825.777588 
	C490.809174,825.777588 482.673767,825.777588 474.030151,825.777588 
	C474.030151,831.397949 473.820557,836.200684 474.200989,840.956177 
	C474.280365,841.948486 476.509949,843.489380 477.799774,843.542786 
	C484.288544,843.811340 490.794373,843.650696 497.293915,843.687805 
	C498.870972,843.696838 500.447052,843.883606 502.312897,844.007935 
	C500.416656,846.949036 480.848907,847.951111 470.923279,846.035461 
	C470.923279,831.857727 470.923279,817.612549 470.923279,802.715088 
	C480.668182,802.715088 490.276215,802.683044 499.882843,802.784485 
	C500.552216,802.791504 501.211121,803.789673 501.874878,804.326965 
	C500.999786,804.837524 500.132050,805.776001 499.248383,805.791260 
	C491.750732,805.920471 484.250244,805.881409 476.276733,805.921265 
z"/>
<path fill="#A0A0A0" opacity="1.000000" stroke="none" 
	d="
M541.004395,840.802246 
	C541.004333,828.034302 541.004333,815.740051 541.004333,802.231750 
	C548.910950,802.796814 556.652039,802.375305 563.883606,804.095581 
	C574.706604,806.670166 580.287781,816.451111 578.992737,827.873047 
	C577.861633,837.849182 569.724121,845.567139 559.123230,846.231689 
	C553.351807,846.593506 547.539124,846.296204 541.307434,846.296204 
	C541.196350,844.454834 541.100403,842.865417 541.004395,840.802246 
M544.367065,816.542480 
	C544.367004,821.202148 544.366882,825.861755 544.366821,830.521423 
	C544.366821,845.330872 545.039001,845.872192 560.079102,843.175842 
	C569.401001,841.504639 575.524414,834.504700 575.774048,825.234314 
	C576.013733,816.332825 570.370789,808.388184 561.510132,806.629700 
	C556.123840,805.560669 550.443848,805.970947 544.367554,805.692505 
	C544.367554,809.626770 544.367554,812.594421 544.367065,816.542480 
z"/>
<path fill="#A0A0A0" opacity="1.000000" stroke="none" 
	d="
M696.279358,828.600464 
	C698.989197,834.493408 701.544067,840.041504 704.098999,845.589661 
	C703.678711,845.973938 703.258362,846.358276 702.838074,846.742615 
	C701.708679,845.669617 699.855530,844.761597 699.567322,843.496887 
	C697.703247,835.316650 692.349670,833.289124 684.853210,834.483521 
	C683.718201,834.664368 682.513123,834.635986 681.368347,834.488281 
	C673.462036,833.467957 666.898438,834.546814 665.005737,844.018311 
	C664.797791,845.058838 663.030029,845.787720 661.985718,846.661072 
	C661.618652,846.351562 661.251587,846.041992 660.884521,845.732422 
	C662.000427,843.219971 663.084106,840.692566 664.237915,838.197571 
	C669.327271,827.192444 674.397644,816.177917 679.595825,805.224243 
	C680.154785,804.046265 681.509583,802.464233 682.476196,802.477295 
	C683.477722,802.490845 684.817688,804.044312 685.385925,805.224426 
	C689.060425,812.855713 692.564453,820.569153 696.279358,828.600464 
M676.175659,819.753723 
	C674.615295,823.326721 673.054932,826.899780 671.313049,830.888489 
	C679.077332,830.888489 685.923828,830.888489 693.651672,830.888489 
	C689.856079,822.526062 686.377075,814.861023 682.457336,806.225098 
	C680.117615,811.276978 678.312134,815.175415 676.175659,819.753723 
z"/>
<path fill="#A0A0A0" opacity="1.000000" stroke="none" 
	d="
M622.284058,839.888550 
	C622.037964,842.328735 621.791870,844.283875 621.545715,846.239075 
	C620.889954,846.194702 620.234131,846.150391 619.578369,846.106018 
	C619.395874,844.771729 619.059814,843.438049 619.054993,842.103149 
	C619.013123,830.461304 618.980286,818.818848 619.096497,807.178040 
	C619.110413,805.782166 620.028992,804.395447 620.528198,803.004456 
	C621.112854,804.493408 622.183594,805.975708 622.204224,807.472473 
	C622.351074,818.114502 622.283386,828.759521 622.284058,839.888550 
z"/>
<path fill="#A0A0A0" opacity="1.000000" stroke="none" 
	d="
M329.107269,826.077698 
	C339.507935,826.229431 349.425476,826.373779 359.341614,826.584290 
	C359.543823,826.588562 359.729706,827.362305 360.225739,828.425354 
	C346.855164,828.425354 333.874725,828.425354 320.894318,828.425354 
	C320.793396,827.901611 320.692474,827.377808 320.591553,826.854065 
	C323.269043,826.595276 325.946533,826.336487 329.107269,826.077698 
z"/>
<path fill="#A0A0A0" opacity="1.000000" stroke="none" 
	d="
M765.661560,829.024048 
	C753.642029,829.024719 742.084229,829.024719 729.972900,829.024719 
	C732.418945,825.515442 765.446289,824.932007 770.870789,828.210999 
	C768.627930,828.594849 767.375610,828.809143 765.661560,829.024048 
z"/>
<path fill="#F08921" opacity="000000" stroke="none" 
	d="
M464.013794,554.233765 
	C464.482727,554.090088 465.149933,554.228210 465.937256,554.688049 
	C465.442291,554.845032 464.827179,554.680298 464.013794,554.233765 
z"/>
<path fill="#FFFEFD" opacity="000000" stroke="none" 
	d="
M732.344849,399.241150 
	C732.251709,399.062805 732.128540,398.868744 732.005310,398.674713 
	C732.110596,398.731079 732.215881,398.787415 732.288574,399.017578 
	C732.256042,399.191376 732.314758,399.225494 732.344849,399.241150 
z"/>
<path fill="#A0A0A0" opacity="1.000000" stroke="none" 
	d="
M634.426025,494.452026 
	C634.386230,494.466461 634.465820,494.437592 634.426025,494.452026 
z"/>
<path fill="#3C4E5F" opacity="000000" stroke="none" 
	d="
M447.801270,688.064209 
	C452.027191,673.216492 462.620453,664.440979 476.410431,664.029236 
	C490.353333,663.612915 502.197571,671.597900 506.883362,684.573120 
	C511.865967,698.370239 507.788208,714.104187 497.029724,722.592651 
	C486.768921,730.688477 471.660156,731.163269 460.637146,723.736389 
	C449.818237,716.447021 444.755219,702.636230 447.801270,688.064209 
z"/>
<path fill="#3C4E5F" opacity="000000" stroke="none" 
	d="
M373.860229,666.641113 
	C381.473755,669.732727 384.554138,674.468628 383.943237,681.700928 
	C383.398987,688.143616 379.478210,693.357178 372.331451,694.021484 
	C362.835571,694.904358 353.195770,694.239380 343.306885,694.239380 
	C343.306885,685.186523 343.306885,675.654846 343.306885,665.103821 
	C353.432190,665.568726 363.453003,666.028870 373.860229,666.641113 
z"/>
<path fill="#3C4E5F" opacity="000000" stroke="none" 
	d="
M270.539307,716.466675 
	C264.862885,723.200195 257.830078,726.696472 249.491257,727.111267 
	C242.535614,727.457275 235.549088,727.182190 228.289505,727.182190 
	C228.289505,706.789307 228.289505,686.397095 228.289505,665.175415 
	C236.898590,665.583862 245.529266,664.921814 253.684738,666.587036 
	C275.595917,671.061096 284.083160,696.493042 270.539307,716.466675 
z"/>
<path fill="#3C4E5F" opacity="000000" stroke="none" 
	d="
M719.919006,704.999512 
	C713.661865,704.999512 707.890747,704.999512 701.330017,704.999512 
	C705.854126,693.887329 710.127747,683.390198 714.937622,671.575928 
	C719.725830,683.296326 724.043335,693.864624 728.592285,704.999512 
	C725.332092,704.999512 722.868530,704.999512 719.919006,704.999512 
z"/>
<path fill="#404F5C" opacity="000000" stroke="none" 
	d="
M544.367310,816.052246 
	C544.367554,812.594421 544.367554,809.626770 544.367554,805.692505 
	C550.443848,805.970947 556.123840,805.560669 561.510132,806.629700 
	C570.370789,808.388184 576.013733,816.332825 575.774048,825.234314 
	C575.524414,834.504700 569.401001,841.504639 560.079102,843.175842 
	C545.039001,845.872192 544.366821,845.330872 544.366821,830.521423 
	C544.366882,825.861755 544.367004,821.202148 544.367310,816.052246 
z"/>
<path fill="#404F5C" opacity="000000" stroke="none" 
	d="
M676.341187,819.413818 
	C678.312134,815.175415 680.117615,811.276978 682.457336,806.225098 
	C686.377075,814.861023 689.856079,822.526062 693.651672,830.888489 
	C685.923828,830.888489 679.077332,830.888489 671.313049,830.888489 
	C673.054932,826.899780 674.615295,823.326721 676.341187,819.413818 
z"/>
</svg>